<?xml version="1.0" encoding="UTF-8" standalone="no"?>
<svg
   xmlns:dc="http://purl.org/dc/elements/1.1/"
   xmlns:cc="http://creativecommons.org/ns#"
   xmlns:rdf="http://www.w3.org/1999/02/22-rdf-syntax-ns#"
   xmlns:svg="http://www.w3.org/2000/svg"
   xmlns="http://www.w3.org/2000/svg"
   viewBox="0 0 147.94209 267.23505"
   height="267.23505"
   width="147.94209"
   xml:space="preserve"
   id="svg2"
   version="1.1"><metadata
     id="metadata8"><rdf:RDF><cc:Work
         rdf:about=""><dc:format>image/svg+xml</dc:format><dc:type
           rdf:resource="http://purl.org/dc/dcmitype/StillImage" /><dc:title></dc:title></cc:Work></rdf:RDF></metadata><defs
     id="defs6"><clipPath
       id="clipPath18"
       clipPathUnits="userSpaceOnUse"><path
         id="path16"
         d="M 0,290.724 H 654.149 V 0 H 0 Z" /></clipPath></defs><g
     transform="matrix(1.3333333,0,0,-1.3333333,-60.198132,327.43399)"
     id="g10"><g
       id="g12"><g
         clip-path="url(#clipPath18)"
         id="g14"><g
           transform="translate(145.7524,220.5283)"
           id="g20"><path
             id="path22"
             style="fill:#1d1d1b;fill-opacity:1;fill-rule:nonzero;stroke:none"
             d="m 0,0 c 0.123,1.766 -0.273,2.748 -2.446,6.086 -4.773,7.316 -7.999,10.963 -9.821,11.088 -0.297,0.021 0.197,-0.797 1.17,-1.924 2.896,-3.35 5.184,-7.904 4.326,-8.619 -0.18,-0.149 -3.648,-0.375 -7.704,-0.502 -9.997,-0.313 -9.546,-0.25 -9.84,-1.369 -0.139,-0.516 -0.211,-0.983 -0.165,-1.037 0.046,-0.053 4.409,0.004 9.696,0.123 5.286,0.119 9.971,0.189 10.411,0.16 0.636,-0.045 0.95,-0.469 1.537,-2.096 0.902,-2.492 1.255,-3.004 2.101,-3.062 C -0.223,-1.187 -0.063,-0.939 0,0 m -11.25,-18.297 c 0.166,0.565 0.401,0.955 0.524,0.867 0.122,-0.088 0.302,0.989 0.399,2.393 0.099,1.457 0.039,2.385 -0.145,2.168 -0.192,-0.233 -0.228,-0.076 -0.091,0.389 0.131,0.453 0.079,0.695 -0.129,0.587 -0.193,-0.101 -0.285,0.1 -0.198,0.452 0.084,0.351 -0.025,0.615 -0.245,0.591 -0.221,-0.027 -0.658,0.282 -0.971,0.682 -0.317,0.398 -0.452,0.715 -0.299,0.705 0.146,-0.01 0.096,0.221 -0.114,0.514 -0.21,0.291 -0.638,0.451 -0.952,0.355 -0.374,-0.113 -0.048,0.016 -0.292,0.215 -0.136,0.109 0.085,0.039 -0.336,0.199 -0.406,0.149 -0.063,0.034 -0.339,0.196 -0.139,0.086 0.116,0.037 -0.337,0.199 -0.39,-0.119 -0.083,0.094 -0.355,0.17 -0.273,0.08 -0.004,0.011 -0.509,0.215 -0.397,0.164 -0.667,-0.006 -0.549,0.158 0.122,0.172 -0.754,0.373 -1.982,0.457 -1.211,0.082 -1.806,-0.137 -1.726,-0.287 0.078,-0.151 -0.263,-0.102 -0.356,-0.096 -0.089,0.006 -0.447,-0.074 -0.79,-0.18 -0.729,-0.101 0.313,0.274 -0.688,-0.183 -0.015,-0.227 -0.291,-0.393 -0.612,-0.373 -0.749,-0.237 0.404,-0.647 -0.321,-0.459 0.3,-0.491 -0.804,-0.178 -1.174,-0.918 -0.123,-0.246 -0.22,-0.143 -0.399,-0.356 0.033,-0.24 -0.209,-0.879 -0.536,-1.42 -0.33,-0.539 -0.461,-1.095 -0.468,-1.173 -0.004,-0.075 1.445,-0.301 3.39,-0.565 4.228,-0.57 5.437,-1.256 8.073,-4.572 0.954,-1.207 1.807,-1.694 1.939,-1.631 0.134,0.062 0.42,0.133 0.588,0.701 m -36.752,-32.174 c 0.025,0.383 -0.161,2.092 -0.419,3.795 -0.258,1.705 -0.683,4.768 -0.945,6.811 -0.681,5.277 -1.149,7.244 -2.191,9.236 -1.319,2.518 -1.204,2.813 1.294,3.326 l 2.695,0.399 -0.468,1.377 c -0.235,0.699 0.02,1.343 -0.067,1.351 -0.284,0.02 -6.355,-2.008 -7.394,-2.635 -0.961,-0.576 -8.674,-4.087 -8.305,-4.142 0.078,-0.016 4.73,1.355 6.272,1.371 1.495,0.014 2.117,0.508 2.6,0.43 1.324,-0.207 1.962,-2.246 2.267,-2.655 1.027,-1.361 0.66,-4.154 2.168,-11.75 1.012,-5.084 1.656,-7.564 1.972,-7.584 0.259,-0.019 0.494,0.284 0.521,0.67 m 38.717,3.282 c 0.651,12.007 0.951,10.828 -4.698,18.523 -1.368,1.861 -2.466,3.637 -2.446,3.945 0.033,0.469 0.363,0.504 2.095,0.227 2.47,-0.397 5.021,-1.916 6.609,-3.938 1.457,-1.974 1.102,-1.558 1.246,0.532 0.117,1.697 0.007,2.095 -0.834,3.06 -0.769,0.881 -3.133,4.133 -3.409,4.682 -0.03,0.064 -0.392,-0.061 -0.799,-0.279 -0.651,-0.344 -0.824,-0.284 -1.364,0.507 -1.292,1.887 -2.515,3.282 -3.995,4.553 -1.454,1.248 -1.711,1.338 -5.307,1.816 -6.406,0.854 -7.39,1.502 -7.169,4.704 0.066,0.951 0.015,2.714 -0.11,3.923 -0.214,2.059 -0.17,2.276 0.711,3.485 1.613,2.215 3.459,5.732 3.527,6.717 0.042,0.617 -0.334,1.404 -1.081,2.259 l -1.145,1.315 -2.535,-0.061 c -3.429,-0.082 -4.803,-0.451 -5.082,-1.371 -1.416,-4.676 -2.511,-14.43 -2.267,-20.234 0.153,-3.666 1.217,-6.697 3.796,-10.799 0.874,-1.391 1.583,-2.629 1.574,-2.752 -0.008,-0.121 0.463,-0.803 1.053,-1.52 0.584,-0.714 2.14,-2.933 3.452,-4.931 1.315,-1.998 4.656,-7.024 7.434,-11.166 2.774,-4.145 6.126,-9.156 7.444,-11.135 2.017,-3.025 2.43,-3.471 2.581,-2.807 0.097,0.438 0.423,5.274 0.719,10.745 m -38.517,-10.489 c 0.021,0.287 -0.119,0.533 -0.312,0.547 -0.192,0.014 -0.364,-0.211 -0.383,-0.5 -0.021,-0.283 0.119,-0.533 0.311,-0.547 0.193,-0.011 0.366,0.215 0.384,0.5 m 33.04,-8.943 c 0.019,0.258 -2.322,1.41 -4.241,2.084 -2.167,0.764 -6.516,1.035 -8.376,0.523 -0.8,-0.22 -1.002,-0.345 -0.458,-0.285 1.485,0.164 11.212,-1.674 12.977,-2.455 0.047,-0.019 0.092,0.037 0.098,0.133 m -23.274,3.34 c 2.305,2.599 3.654,3.349 8.195,4.549 5.61,1.48 7.712,1.671 10.774,0.978 1.362,-0.309 2.546,-0.504 2.628,-0.434 0.18,0.161 -14.694,23.155 -15.103,23.344 -0.165,0.076 -0.342,-0.465 -0.394,-1.205 -0.202,-2.943 -1.636,-12.64 -2.348,-15.871 -0.995,-4.533 -1.37,-5.162 -3.075,-5.184 -1.179,-0.017 -1.536,0.19 -2.934,1.69 -0.878,0.943 -1.982,1.924 -2.454,2.18 -0.47,0.255 -0.85,0.593 -0.838,0.757 0.012,0.161 -1.154,0.375 -2.591,0.473 -2.456,0.17 -2.625,0.131 -2.876,-0.637 -0.639,-1.97 -0.283,-2.728 1.897,-4.009 2.697,-1.584 2.909,-1.811 4.192,-4.528 0.974,-2.064 2.374,-3.832 3.071,-3.881 0.144,-0.009 0.979,0.791 1.856,1.778 m 6.775,-2.33 c 2.282,0.914 1.68,1.06 -0.985,0.236 -1.515,-0.469 -2,-0.734 -1.44,-0.789 0.466,-0.045 1.561,0.205 2.425,0.553 m -3.558,-0.629 c -0.198,0.224 -1.667,-0.198 -1.687,-0.487 -0.012,-0.168 0.386,-0.148 0.882,0.036 0.494,0.185 0.858,0.386 0.805,0.451 m -2.273,-1.91 c -0.109,0.123 -0.204,-0.079 -0.217,-0.448 -0.009,-0.408 0.069,-0.494 0.198,-0.224 0.118,0.246 0.126,0.549 0.019,0.672 m -0.495,-2.071 c -0.105,0.123 -0.203,-0.078 -0.213,-0.447 -0.013,-0.404 0.065,-0.494 0.196,-0.223 0.116,0.245 0.126,0.547 0.017,0.67 m 25.484,-8.15 0.119,1.961 -0.516,-0.881 c -0.313,-0.75 -0.724,-2.537 -0.915,-3.967 l -0.09,-1.758 0.484,0.678 c 0.475,0.969 0.808,2.414 0.918,3.967 m -6.413,-12.18 c 0.259,0.274 0.391,0.498 0.295,0.504 -0.095,0.008 -0.386,-0.207 -0.644,-0.48 -0.259,-0.272 -0.393,-0.498 -0.297,-0.504 0.098,-0.008 0.388,0.207 0.646,0.48 m -0.882,15.19 3.2,3.935 -1.035,0.531 c -0.571,0.291 -2.313,0.707 -3.873,0.928 -2.656,0.371 -3.083,0.33 -6.661,-0.66 -2.103,-0.582 -3.83,-1.176 -3.839,-1.318 -0.023,-0.325 8.663,-7.651 8.861,-7.475 0.077,0.07 1.584,1.897 3.347,4.059 m -8.906,-0.811 c -2.596,2.219 -4.704,4.238 -4.687,4.492 0.018,0.274 1.72,0.934 4.166,1.614 3.475,0.972 4.563,1.125 6.817,0.968 1.475,-0.105 3.221,-0.365 3.881,-0.586 0.659,-0.218 1.624,-0.521 2.143,-0.679 0.519,-0.153 0.925,-0.471 0.901,-0.709 -0.086,-0.877 -7.109,-9.055 -7.809,-9.092 -0.419,-0.02 -2.565,1.562 -5.412,3.992 m 9.986,-9.158 c 0.635,0.834 2.517,7.113 2.395,7.976 -0.081,0.551 -4.599,-5.037 -4.648,-5.746 -0.042,-0.609 1.05,-2.998 1.381,-3.021 0.144,-0.01 0.536,0.346 0.872,0.791 m -2.461,0.008 c -0.416,0.988 -0.732,2.074 -0.703,2.416 0.081,0.888 5.706,7.769 6.317,7.726 0.717,-0.049 0.567,-1.25 -0.76,-6.039 -0.925,-3.34 -1.317,-4.254 -2.162,-5.019 -0.565,-0.518 -1.231,-0.926 -1.482,-0.908 -0.248,0.017 -0.793,0.835 -1.21,1.824 m 1.252,-5.994 c -0.029,0.271 0.383,0.937 0.915,1.474 0.529,0.545 0.835,0.758 0.671,0.479 -0.166,-0.289 -0.152,-0.393 0.042,-0.242 0.184,0.146 0.355,0.531 0.379,0.853 0.025,0.318 0.279,0.57 0.568,0.553 0.312,-0.012 0.498,0.236 0.459,0.621 -0.046,0.433 0.065,0.551 0.342,0.351 0.223,-0.158 0.328,-0.14 0.228,0.047 -0.098,0.188 0.175,1.19 0.61,2.235 0.433,1.039 0.962,2.97 1.175,4.287 0.37,2.301 2.607,8.549 3.291,9.195 0.585,0.553 1.002,-0.391 0.687,-1.545 -0.197,-0.724 -0.48,-1.06 -0.826,-0.974 -0.286,0.072 -0.612,-0.082 -0.723,-0.344 -0.112,-0.266 -0.039,-0.387 0.167,-0.278 0.216,0.112 0.438,-0.357 0.524,-1.103 0.118,-1.002 0.344,-1.156 0.641,-0.789 0.275,0.338 0.303,0.131 0.099,-0.734 -0.175,-0.729 0.232,-0.956 0.431,-0.686 0.266,0.355 -0.123,0.213 0.024,-0.264 0.101,-0.33 0.382,-0.664 0.27,-0.82 -0.109,-0.154 -0.011,-0.186 0.204,-0.34 0.26,-0.185 0.007,-0.404 -0.156,-0.094 -0.166,0.311 -0.091,0.399 0.226,0.258 0.259,-0.119 0.427,-0.371 0.373,-0.564 -0.056,-0.194 0.252,-0.299 0.685,-0.237 0.476,0.073 0.617,0.012 0.36,-0.146 -0.243,-0.152 0.75,-0.346 2.301,-0.455 1.541,-0.106 2.649,-0.043 2.55,0.146 -0.094,0.184 0.161,0.215 0.567,0.082 0.479,-0.164 0.551,-0.037 0.418,0.211 -0.13,0.252 0.122,0.223 0.492,0.051 0.395,-0.183 0.511,-0.133 0.363,0.15 -0.149,0.284 -0.032,0.331 0.361,0.151 0.39,-0.186 0.51,-0.135 0.359,0.15 -0.147,0.28 -0.033,0.336 0.339,0.16 0.346,-0.162 0.543,-0.095 0.507,0.168 -0.03,0.239 0.183,0.416 0.471,0.403 0.718,-0.033 1.48,0.406 1.298,0.75 -0.084,0.152 0.348,0.695 0.953,1.201 0.607,0.506 1.094,0.781 1.082,0.609 -0.012,-0.168 0.187,-0.127 0.44,0.094 0.255,0.221 0.482,0.67 0.507,0.998 0.024,0.33 0.228,0.586 0.454,0.57 0.222,-0.015 0.546,0.106 0.719,0.27 0.182,0.178 0.107,0.199 -0.187,0.049 -0.348,-0.168 -0.436,-0.094 -0.291,0.228 0.114,0.264 0.38,0.426 0.591,0.362 0.209,-0.063 0.378,0.162 0.371,0.502 -0.003,0.337 0.042,0.923 0.102,1.306 0.089,0.58 0.159,0.602 0.415,0.145 0.215,-0.385 0.264,-0.19 0.161,0.656 -0.085,0.691 -0.018,1.113 0.154,0.99 0.18,-0.131 0.667,5.049 1.19,12.647 0.488,7.074 0.75,12.601 0.58,12.283 -0.169,-0.32 -0.17,0.355 -0.002,1.5 0.216,1.465 0.195,1.883 -0.069,1.41 -0.297,-0.529 -0.335,-0.355 -0.186,0.77 0.104,0.796 0.049,1.371 -0.128,1.281 -0.173,-0.092 -0.178,0.353 -0.002,0.992 -0.269,0.805 -0.003,0.199 -0.12,0.666 -0.128,0.51 -0.378,-0.299 -0.151,0.477 0.206,0.711 0.166,0.914 -0.15,0.746 -0.306,-0.162 -0.362,-0.01 -0.187,0.508 0.161,0.48 0.111,0.666 -0.141,0.533 -0.252,-0.131 -0.296,0.006 -0.124,0.379 0.183,0.39 0.136,0.509 -0.148,0.359 -0.284,-0.148 -0.334,-0.031 -0.151,0.363 0.182,0.391 0.132,0.508 -0.151,0.36 -0.281,-0.149 -0.333,-0.034 -0.148,0.361 0.181,0.395 0.133,0.51 -0.153,0.361 -0.28,-0.148 -0.334,-0.035 -0.16,0.34 0.16,0.348 0.097,0.541 -0.169,0.506 -0.236,-0.027 -0.411,0.215 -0.391,0.543 -1.24,1.26 -0.588,0.133 -1.6,1.381 -0.373,0.662 -0.072,0.435 -0.671,0.939 -0.394,0.139 -0.586,-0.082 -0.417,0.153 0.165,0.232 -0.026,0.32 -0.538,0.242 -0.652,-0.1 0.282,0.172 -0.249,0.236 -0.545,0.065 0.328,0.32 -0.476,0.188 -0.578,-0.096 -0.922,-0.045 -0.813,0.132 0.16,0.262 -0.922,0.377 -2.336,0.475 -1.464,0.1 -2.475,0.033 -2.374,-0.158 0.098,-0.186 -0.085,-0.213 -0.408,-0.065 -0.705,0.096 -0.349,-0.427 -0.797,-0.759 -0.3,-0.219 -0.566,-0.651 -0.593,-0.963 -0.037,-0.496 -0.084,-0.498 -0.36,-0.02 -0.407,-0.342 0.31,-0.021 -0.17,-0.386 -0.434,-0.336 -0.022,-1.032 -0.258,-1.153 -0.559,-0.295 -0.579,0.752 -1.18,1.197 -0.231,0.17 -0.207,-0.222 -0.094,0.309 0.04,0.189 -0.7,0.484 -1.172,1.279 -0.474,0.793 -1.559,1.959 -2.41,2.588 -1.449,1.076 -4.625,2.391 -4.997,2.067 -0.09,-0.08 0.66,-1.276 1.672,-2.659 3.332,-4.556 4.852,-6.994 5.261,-8.445 0.586,-2.076 -0.579,-23.834 -1.285,-24.053 -0.454,-0.138 -4.355,5.514 -17.667,25.604 -2.369,3.576 -4.426,6.517 -4.568,6.539 -0.144,0.021 -0.282,-0.24 -0.309,-0.574 -0.029,-0.393 -0.13,-0.463 -0.276,-0.19 -0.125,0.233 -0.285,-0.416 -0.357,-1.433 -0.069,-1.022 0.01,-1.84 0.183,-1.821 0.956,0.711 -0.019,-0.392 0.465,-1.045 0.49,0.254 2.032,-1.939 9.764,-13.91 4.992,-7.726 7.413,-11.775 7.166,-11.99 -0.244,-0.211 -1.117,-0.146 -2.579,0.193 -4.442,1.041 -5.916,0.946 -12.191,-0.767 -4.011,-1.09 -6.059,-2.358 -8.075,-4.992 -0.628,-0.817 -1.196,-1.42 -1.266,-1.342 -0.069,0.076 -0.195,-0.43 -0.279,-1.121 -0.117,-0.951 -0.059,-1.145 0.239,-0.774 0.282,0.35 0.31,-0.002 0.095,-1.246 -0.165,-0.955 -0.197,-1.523 -0.075,-1.269 0.184,0.384 0.267,0.379 0.479,-0.024 0.401,-0.758 0.637,-0.297 1.042,2.008 0.204,1.176 0.557,2.27 0.783,2.43 0.224,0.162 2.742,0.963 5.594,1.781 4.876,1.398 5.374,1.473 8.324,1.24 4.792,-0.373 9.81,-2.605 9.694,-4.304 -0.041,-0.608 -0.194,-0.688 -0.82,-0.457 -1.738,0.644 -6.849,1.744 -10.109,2.171 -3.295,0.44 -3.576,0.422 -5.361,-0.334 -1.037,-0.437 -2.646,-0.906 -3.576,-1.045 -2.38,-0.353 -2.867,-0.781 -3.608,-3.191 l -0.65,-2.121 0.816,0.041 c 0.605,0.031 1.745,-0.904 4.385,-3.584 3.858,-3.918 4.726,-5.395 6.184,-10.551 0.734,-2.588 0.831,-2.728 2.831,-4.123 2.086,-1.451 3.883,-1.859 3.785,-0.849 m -18.101,-7.877 c 0.477,2.17 1.001,4.57 1.167,5.328 l 0.3,1.383 -3.077,-0.02 c -1.695,-0.012 -3.142,-0.035 -3.215,-0.047 -0.076,-0.01 -0.127,-1.01 -0.114,-2.217 0.036,-3.031 2.516,-8.769 3.663,-8.474 0.231,0.056 0.797,1.849 1.276,4.047 m -2.726,-4.311 c -0.374,0.461 -1.269,2.143 -1.992,3.733 -1.172,2.585 -1.298,3.146 -1.155,5.23 0.084,1.289 0.323,2.484 0.529,2.658 0.202,0.176 2.024,0.256 4.041,0.174 3.487,-0.129 3.667,-0.176 3.586,-0.834 -0.367,-2.936 -2.093,-10.525 -2.531,-11.131 -0.3,-0.41 -0.826,-0.734 -1.173,-0.709 -0.347,0.024 -0.934,0.422 -1.305,0.879 m 8.159,-56.682 c 1.212,0.991 1.331,3.336 0.3,5.819 l -0.78,1.885 0.876,1.57 c 1.485,2.67 2.645,7.779 3.018,13.318 0.365,5.399 0.082,8.295 -1.418,14.59 -1.016,4.256 -0.937,5.979 0.388,8.475 0.556,1.047 1.713,3.826 2.571,6.175 3.169,8.67 5.343,14.895 5.379,15.407 0.021,0.289 -0.958,1.222 -2.175,2.08 l -2.214,1.553 -0.906,3.31 c -1.195,4.359 -2.072,5.813 -5.896,9.752 -2.699,2.785 -3.337,3.275 -4.076,3.145 -0.484,-0.086 -0.896,-0.383 -0.916,-0.663 -0.047,-0.687 -3.252,-2.949 -9.683,-6.824 -6.89,-4.15 -8.103,-5.504 -8.873,-9.894 -0.421,-2.414 0.033,-4.834 1.724,-9.233 0.64,-1.658 1.16,-3.07 1.155,-3.136 -0.005,-0.063 0.778,-2.116 1.739,-4.555 3.073,-7.813 5.984,-15.617 5.959,-15.977 -0.027,-0.392 -4.738,-2.865 -7.332,-3.841 -2.159,-0.821 -2.754,-1.43 -3.019,-3.1 l -0.214,-1.363 2.016,-0.981 c 1.752,-0.853 2.816,-1.064 8.126,-1.637 l 6.111,-0.658 -0.131,-4.549 c -0.119,-4.189 -0.055,-4.74 0.83,-7.025 0.529,-1.365 0.945,-2.672 0.927,-2.912 -0.068,-1.014 -3.924,-2.678 -9.096,-3.924 -3.22,-0.779 -4.43,-1.31 -5.44,-2.387 -1.044,-1.121 -0.853,-1.451 1.402,-2.451 2.187,-0.965 6.162,-1.588 14.978,-2.344 3.479,-0.298 3.885,-0.265 4.67,0.375 m -10.109,-0.765 c -7.044,0.683 -7.643,0.797 -10.123,1.887 -2.932,1.289 -3.153,1.734 -1.789,3.628 0.976,1.358 2.309,1.997 6.239,2.977 3.41,0.85 6.49,1.955 7.612,2.727 0.642,0.443 0.63,0.574 -0.306,3.099 -0.922,2.5 -0.96,2.86 -0.699,6.738 l 0.277,4.106 -3.068,0.211 c -4.827,0.332 -9.476,1.297 -11.564,2.394 l -2.835,1.327 0.609,2.007 c 0.686,2.266 1.467,2.293 3.433,3.102 2.553,1.057 7.448,3.453 7.462,3.658 0.01,0.11 -2.073,5.613 -4.626,12.238 -2.552,6.625 -4.948,13.057 -5.321,14.291 -1.289,4.225 -0.338,9.401 2.276,12.379 0.547,0.623 3.065,2.358 5.601,3.858 2.536,1.502 5.826,3.566 7.317,4.592 2.282,1.568 2.719,2.027 2.779,2.904 0.044,0.662 -0.107,1.055 -0.413,1.074 -0.645,0.045 -0.777,0.58 -0.869,3.445 -0.068,2.18 -0.171,2.481 -1.097,3.178 -0.564,0.426 -1.584,1.902 -2.274,3.279 -0.689,1.379 -1.671,2.864 -2.185,3.307 -0.877,0.748 -0.961,0.762 -1.318,0.211 -0.596,-0.91 -1.719,-0.639 -2.04,0.494 -0.152,0.539 -0.499,1.449 -0.771,2.02 -0.371,0.781 -0.405,1.507 -0.14,2.925 0.302,1.61 0.16,2.875 -0.957,8.53 0.452,1.256 -0.417,2.676 -1.041,6.867 -0.192,-0.27 -0.269,3.836 -1.154,4.814 -0.506,0.561 -0.165,0.477 -0.743,1.297 -0.508,0.719 -0.516,0.846 -0.822,0.914 -0.307,0.067 -1.195,0.059 -1.659,0.102 -0.464,0.043 -1.982,-0.133 -2.623,-0.108 -1.808,0.067 -6.873,-2.191 -6.107,-1.482 -1.984,2.447 16.986,9.154 17.756,8.529 0.173,-0.197 1.092,-2.673 0.429,-3.464 l -0.508,-0.604 -2.387,-0.486 c -1.118,-0.229 -1.864,-0.139 -1.829,-0.381 0.034,-0.235 -0.288,0.058 0.125,-0.713 0.814,-1.508 2.311,-5.244 2.867,-9.424 0.777,-5.871 1.572,-11.535 1.698,-12.125 0.107,-0.502 0.53,-0.648 2.201,-0.764 1.142,-0.078 2.064,-0.273 2.054,-0.437 -0.011,-0.16 0.364,-0.5 0.836,-0.756 0.472,-0.256 1.565,-1.223 2.43,-2.152 1.714,-1.84 2.043,-1.983 2.881,-1.25 0.794,0.691 1.428,3.232 2.495,9.992 1.34,8.517 1.505,11.674 0.713,13.535 -0.571,1.334 -0.584,1.69 -0.134,3.178 0.77,2.519 0.719,2.824 -0.854,5.303 -1.955,3.078 -3.127,5.949 -3.604,8.839 -0.452,2.735 0.048,13.078 0.817,16.948 l 0.466,2.332 c -0.832,-0.094 -1.003,0.213 -1.626,0.465 -0.535,0.236 0.198,0.634 0.66,0.724 0.9,0.174 1.348,0.459 1.377,0.869 0.092,1.328 0.96,2.701 1.892,2.998 0.529,0.166 2.265,0.383 3.857,0.483 3.287,0.203 4.29,-0.174 5.62,-2.112 l 0.743,-1.086 2.812,0.104 c 1.547,0.055 5.344,0.195 8.434,0.311 3.095,0.111 5.679,0.248 5.747,0.3 0.063,0.053 -0.116,0.635 -0.402,1.301 -1.066,2.488 -2.964,5.381 -4.602,7.027 -1.828,1.836 -1.832,2.479 -0.015,2.354 2.113,-0.145 5.112,-3.346 9.94,-10.604 C 0.595,2.842 0.974,1.812 0.59,-0.732 0.394,-2.031 0.325,-2.098 -0.658,-1.92 c -1.405,0.25 -2.03,0.984 -2.801,3.272 -0.407,1.214 -0.86,1.951 -1.214,1.974 -0.309,0.022 -4.822,-0.06 -10.027,-0.185 -5.204,-0.12 -9.624,-0.211 -9.822,-0.198 -0.198,0.014 -1.205,-1.338 -2.243,-3.002 l -1.881,-3.025 0.18,-2.727 c 0.1,-1.503 0.184,-3.267 0.188,-3.918 0.003,-0.765 0.264,-1.386 0.738,-1.744 0.694,-0.533 0.77,-0.484 1.707,1.082 1.292,2.166 3.915,4.239 5.845,4.62 2.668,0.521 5.944,-0.68 8.288,-3.043 2.279,-2.297 3.006,-5.157 2.114,-8.332 -0.525,-1.877 -0.516,-1.958 0.439,-3.575 0.538,-0.91 1.626,-2.443 2.42,-3.406 l 1.44,-1.756 -0.357,-2.267 -0.358,-2.262 0.688,0.902 c 0.929,1.229 2.46,1.682 4.96,1.483 2.619,-0.213 4.434,-0.93 6.192,-2.457 2.263,-1.965 3.53,-4.786 4.244,-9.454 0.697,-4.533 -0.045,-23.103 -1.164,-29.132 -0.674,-3.631 -1.949,-6.016 -4.463,-8.33 -4.671,-4.303 -9.865,-5.483 -13.778,-3.135 -0.72,0.433 -1.469,1.162 -1.671,1.625 -0.363,0.832 -0.365,0.832 -0.249,-0.1 0.208,-1.676 -1.478,-5.236 -4.024,-8.496 -3.999,-5.123 -4.647,-5.865 -5.219,-5.982 -0.366,-0.075 -0.955,-1.326 -1.743,-3.676 -2.17,-6.496 -5.954,-16.432 -6.775,-17.805 -1.118,-1.861 -1.08,-4.539 0.136,-9.939 1.121,-4.965 1.435,-8.537 1.132,-12.797 -0.305,-4.254 -1.519,-9.875 -2.721,-12.584 l -1.021,-2.301 0.685,-2.058 c 0.377,-1.133 0.642,-2.743 0.589,-3.581 -0.082,-1.263 -0.309,-1.699 -1.365,-2.623 -0.923,-0.802 -1.541,-1.068 -2.258,-0.962 -0.544,0.076 -4.36,0.466 -8.477,0.863" /></g><g
           transform="translate(131.9048,138.1807)"
           id="g24"><path
             id="path26"
             style="fill:#1d1d1b;fill-opacity:1;fill-rule:nonzero;stroke:none"
             d="M 0,0 C 0.367,2.746 0.722,4.383 1.199,5.584 L 1.492,6.316 1.409,4.795 C 1.296,2.611 0.925,1.119 0.15,-0.293 l -0.253,-0.453 z" /></g><g
           transform="translate(130.4722,154.2549)"
           id="g28"><path
             id="path30"
             style="fill:#1d1d1b;fill-opacity:1;fill-rule:nonzero;stroke:none"
             d="m 0,0 c -0.079,0.094 -2.298,0.658 -4.033,1.031 -2.439,0.522 -4.774,0.934 -6.912,1.221 l -1.752,0.234 0.629,0.143 c 1,0.225 2.101,0.264 3.948,0.141 C -6.354,2.645 -5.321,2.475 -4.177,2.104 -3.332,1.83 -1.716,1.146 -0.875,0.703 -0.23,0.365 0.324,-0.047 0.134,-0.043 0.081,-0.043 0.021,-0.021 0,0" /></g><g
           transform="translate(118.2505,230.0342)"
           id="g32"><path
             id="path34"
             style="fill:#1d1d1b;fill-opacity:1;fill-rule:nonzero;stroke:none"
             d="m 0,0 c -2.437,-0.363 -5.22,0.221 -7.43,-1.055 -1.424,-1.627 -1.348,-4.066 -1.816,-6.091 -0.843,-6.139 -1.804,-12.469 -0.692,-18.616 2.22,-7.724 7.669,-13.929 11.895,-20.59 4.758,-6.921 9.194,-14.089 14.15,-20.859 0.405,-0.861 1.831,-0.883 1.83,0.219 0.654,6.336 1.008,12.724 1.155,19.09 -0.069,4.656 -3.903,7.922 -6.134,11.66 -0.301,0.551 -0.99,1.289 -0.954,1.736 3.284,-0.117 5.968,-2.316 8.101,-4.598 1.09,-0.83 1.668,0.821 1.509,1.694 0.461,2.656 -1.931,4.445 -3.184,6.445 -0.557,0.998 -1.521,2.342 -2.799,1.543 -2.509,2.461 -4.466,6.129 -8.31,6.592 -2.645,0.682 -5.656,0.598 -8.002,1.984 -1.018,1.381 -0.325,3.434 -0.64,5.063 -0.015,1.652 -0.591,3.431 0.747,4.736 1.272,2.32 3.212,4.568 3.391,7.301 C 2.385,-2.289 1.275,-0.932 0.108,0 Z" /></g><g
           transform="translate(113.9448,185.6533)"
           id="g36"><path
             id="path38"
             style="fill:#1d1d1b;fill-opacity:1;fill-rule:nonzero;stroke:none"
             d="M 0,0 C -1.116,-0.955 -0.756,-2.793 -1.109,-4.123 -1.85,-9.49 -2.521,-14.955 -3.95,-20.154 c -0.194,-1.026 -1.132,-1.639 -2.133,-1.317 -1.611,0.428 -2.509,2.252 -3.879,3.117 -1.714,1.872 -4.448,1.954 -6.788,1.665 -1.877,-0.676 -1.648,-3.538 -0.23,-4.608 1.804,-1.39 4.064,-2.392 4.971,-4.646 0.912,-1.723 1.859,-3.703 3.6,-4.764 1.518,0.082 2.317,1.853 3.451,2.703 2.851,3.014 7.241,3.477 11.05,4.451 3.056,0.748 6.197,0.121 9.248,-0.295 1.392,0.709 -0.519,2.266 -0.883,3.233 C 10.148,-13.908 5.924,-7.137 1.398,-0.586 1.05,-0.221 0.548,0.213 0,0" /></g><g
           transform="translate(107.5903,128.1357)"
           id="g40"><path
             id="path42"
             style="fill:#1d1d1b;fill-opacity:1;fill-rule:nonzero;stroke:none"
             d="m 0,0 c 1.094,-0.082 2.557,0.053 1.851,-1.52 -0.505,-3.251 -1.08,-6.605 -2.341,-9.654 -1.033,-0.383 -1.567,1.25 -2.033,1.93 -1.254,2.396 -2.656,5.037 -2.025,7.861 0.045,0.604 0.023,1.535 0.914,1.358 C -2.422,0.127 -1.216,0.074 0,0 m 1.015,19.83 c -1.535,-0.33 -2.141,-2.098 -3.546,-2.738 -4.468,-3.297 -9.614,-5.688 -13.77,-9.405 -2.668,-2.585 -3.213,-6.714 -2.538,-10.212 2.027,-7.202 5.168,-14.053 7.639,-21.094 0.869,-2.383 1.819,-4.795 2.588,-7.182 -2.788,-1.851 -6.055,-2.918 -8.873,-4.724 -1.226,-0.952 -1.603,-2.704 -1.474,-4.149 4.708,-2.83 10.455,-2.625 15.725,-3.422 0.947,-0.267 0.053,-2.156 0.349,-3.017 -0.105,-3.088 -0.122,-6.244 1.13,-9.137 0.106,-0.727 0.959,-1.973 -0.143,-2.309 -3.815,-2.142 -8.29,-2.494 -12.216,-4.386 -0.983,-0.625 -2.831,-1.84 -1.835,-3.164 2.33,-1.891 5.515,-2.225 8.38,-2.725 4.25,-0.402 8.554,-1.053 12.833,-0.924 1.721,0.365 2.317,2.209 2.171,3.787 0.226,1.772 -0.945,3.371 -1.127,4.979 2.357,4.392 3.216,9.351 3.462,14.285 0.496,4.453 0.309,8.965 -0.802,13.309 -0.677,3.277 -1.739,6.863 -0.027,10.027 2.917,6.928 5.489,14.027 7.739,21.197 0.432,1.807 -1.835,2.651 -2.895,3.631 -1.964,0.85 -1.692,3.199 -2.439,4.904 -1.448,4.965 -5.081,8.951 -9.058,12.092 -0.384,0.231 -0.816,0.422 -1.273,0.377" /></g><g
           transform="translate(130.6255,144.8896)"
           id="g44"><path
             id="path46"
             style="fill:#1d1d1b;fill-opacity:1;fill-rule:nonzero;stroke:none"
             d="m 0,0 c -0.058,-2.961 -1.231,-5.861 -2.125,-8.652 -0.387,-1.047 -1.157,-2.17 -2.206,-2.514 -0.885,1.092 -1.826,2.607 -1.563,4.045 1.47,2.582 3.419,4.953 5.611,6.982 C -0.197,-0.088 -0.103,-0.014 0,0 m -6.138,6.096 c 1.948,-0.272 4.09,-0.391 5.778,-1.43 -1.712,-3.152 -4.34,-5.859 -6.931,-8.373 -0.839,-1.15 -1.778,0.531 -2.601,0.896 -2.625,2.135 -5.368,4.241 -7.613,6.805 3.649,1.295 7.432,2.729 11.367,2.102 M 0.343,50.809 C -0.729,50.354 0.561,49.109 0.849,48.496 2.67,45.504 5.125,42.801 6.382,39.535 7.081,34.73 6.375,29.742 6.26,24.877 6.044,21.9 6.01,18.832 5.374,15.943 0.102,22.748 -4.403,30.121 -9.291,37.201 c -2.309,3.395 -4.559,6.873 -6.982,10.166 -1.392,0.227 -1.595,-1.721 -1.558,-2.724 0.125,-2.166 2.167,-3.528 3.146,-5.329 4.93,-7.322 9.864,-14.722 14.182,-22.416 -0.127,-0.386 -1.215,0.055 -1.631,0.041 -3.254,0.817 -6.722,0.93 -9.978,-0.052 -3.907,-0.854 -8.026,-2.09 -10.616,-5.35 -0.786,-1.078 -2.262,-2.207 -2.014,-3.672 0.786,-0.744 -0.283,-2.519 1.138,-2.896 1.127,-0.17 0.817,1.601 1.204,2.242 0.234,1.143 0.511,2.551 1.933,2.662 4.508,1.268 9.122,3.332 13.905,2.318 2.72,-0.56 5.876,-1.148 7.789,-3.343 C 1.772,8.168 1.14,8.174 0.562,8.357 c -4.321,0.899 -8.655,2.196 -13.094,2.157 -2.437,-0.537 -4.83,-1.336 -7.244,-2.037 -1.935,-0.77 -2.265,-3.168 -2.797,-4.899 0.363,-0.801 1.562,-0.383 2.068,-1.113 3.059,-2.524 5.916,-5.467 7.705,-9 1.197,-2.35 1.374,-5.201 3.001,-7.328 1.424,-1.028 3.05,-2.66 4.943,-2.446 1.119,0.58 1.747,1.121 2.489,2.653 0.449,1.127 1.96,1.605 1.997,2.961 C 1.404,-5.934 1.831,-0.588 4.503,3.813 4.881,4.187 3.791,3.109 3.678,2.898 3.699,1.863 3.229,2.084 3.363,1.127 3.763,0.35 3.957,-0.73 4.215,-1.475 c 0.408,-0.832 0.618,-1.121 1.031,-1.847 1.033,-1.871 3.644,-1.594 5.462,-1.846 0.894,-0.019 1.785,0.078 2.628,0.223 0.701,0.351 1.047,0.306 1.756,0.701 0.894,0.289 0.863,0.51 1.765,0.9 0.86,0.498 1.053,0.992 2.011,1.832 0.999,0.658 1.041,1.098 1.749,1.973 0.57,0.348 0.576,0.588 1.237,1.342 0.547,0.943 0.495,1.013 0.964,2.154 0.834,6.482 1.018,13.072 1.543,19.598 0.096,3.185 0.648,6.431 0.344,9.595 -0.415,1.299 -0.195,2.864 -0.591,4.139 0.405,0.848 -0.652,1.238 -0.472,2.115 -0.245,0.684 -0.702,1.19 -0.781,1.955 -0.353,0.414 -0.139,1.032 -0.688,1.346 -0.1,0.736 -0.475,0.961 -1.291,1.42 -0.8,0.699 -1.281,1.588 -2.287,1.756 -0.74,0.422 -1.016,0.32 -1.897,0.637 -1.436,0.269 -3.18,0.644 -4.512,0.039 C 10.963,46.541 10.603,44.988 9.803,44.426 9.746,43.887 9.665,43.045 9.104,43.73 c -1.68,2.729 -3.928,5.409 -7.066,6.5 -0.547,0.208 -1.099,0.541 -1.695,0.579" /></g><g
           transform="translate(133.9106,237.7842)"
           id="g48"><path
             id="path50"
             style="fill:#1d1d1b;fill-opacity:1;fill-rule:nonzero;stroke:none"
             d="m 0,0 c -1.071,-0.408 0.302,-1.562 0.55,-2.143 1.648,-2.468 3.883,-4.902 4.378,-7.878 -0.187,-0.75 -1.478,-0.319 -2.055,-0.553 -4.846,-0.432 -9.777,-0.143 -14.593,-0.858 -0.865,-0.222 -1.447,-1.535 -0.962,-2.24 6.812,-0.269 13.725,0.338 20.512,-0.086 1.181,-1.474 1.264,-3.828 2.928,-4.875 1.342,-0.138 1.375,1.805 1.216,2.735 -1.259,4.156 -4.225,7.576 -6.806,11.009 -1.561,1.698 -2.881,3.926 -5.043,4.895 L 0.087,0.008 Z" /></g><g
           transform="translate(122.7251,151.3779)"
           id="g52"><path
             id="path54"
             style="fill:#1d1d1b;fill-opacity:1;fill-rule:nonzero;stroke:none"
             d="m 0,0 c -2.678,0.012 -5.235,-0.99 -7.771,-1.738 -0.7,-0.133 -1.685,-0.752 -1.2,-1.576 1.514,-1.618 3.328,-2.963 4.986,-4.438 1.318,-1.039 2.542,-2.26 4.016,-3.072 0.947,-0.053 1.307,1.056 1.922,1.592 1.8,2.179 3.687,4.306 5.362,6.58 0.362,0.881 -0.823,1.31 -1.515,1.57 C 3.95,-0.391 1.956,-0.152 0,0" /></g><g
           transform="translate(129.5825,143.6924)"
           id="g56"><path
             id="path58"
             style="fill:#1d1d1b;fill-opacity:1;fill-rule:nonzero;stroke:none"
             d="m 0,0 c -1.01,-0.33 -1.551,-1.42 -2.272,-2.145 -0.957,-1.293 -2.174,-2.478 -2.739,-4.007 0.015,-1.151 0.635,-2.219 1.164,-3.209 0.343,-0.797 1.399,-0.623 1.81,0.029 1.186,1.35 1.443,3.228 2.043,4.867 0.313,1.276 0.848,2.541 0.832,3.865 C 0.763,-0.223 0.379,0.049 0,0" /></g><g
           transform="translate(118.8384,156.8682)"
           id="g60"><path
             id="path62"
             style="fill:#1d1d1b;fill-opacity:1;fill-rule:nonzero;stroke:none"
             d="m 0,0 c -0.425,0.078 -1.144,-0.203 -0.871,-0.736 0.475,-0.424 1.204,-0.209 1.788,-0.362 3.459,-0.484 6.929,-1.136 10.292,-2.048 0.372,-0.079 0.939,-0.524 1.167,-0.02 0.192,0.674 -0.685,0.852 -1.146,1.02 C 7.8,-1.234 4.282,-0.58 0.766,-0.062 0.513,-0.033 0.255,-0.012 0,0" /></g><g
           transform="translate(115.606,155.9854)"
           id="g64"><path
             id="path66"
             style="fill:#1d1d1b;fill-opacity:1;fill-rule:nonzero;stroke:none"
             d="m 0,0 c -1.277,-0.191 -2.537,-0.605 -3.712,-1.139 -0.456,-0.195 -0.201,-0.892 0.275,-0.808 1.287,0.127 2.555,0.556 3.69,1.176 C 0.734,-0.535 0.505,0.064 0,0" /></g><g
           transform="translate(110.812,154.6318)"
           id="g68"><path
             id="path70"
             style="fill:#1d1d1b;fill-opacity:1;fill-rule:nonzero;stroke:none"
             d="m 0,0 c -0.604,-0.035 -1.378,-0.094 -1.748,-0.631 -0.178,-0.601 0.616,-0.685 1.015,-0.506 0.412,0.166 1.01,0.268 1.154,0.75 C 0.401,-0.141 0.244,0.008 0,0" /></g><g
           transform="translate(108.7085,152.5479)"
           id="g72"><path
             id="path74"
             style="fill:#1d1d1b;fill-opacity:1;fill-rule:nonzero;stroke:none"
             d="M 0,0 C -0.563,0.104 -0.858,-0.932 -0.23,-1.004 0.308,-1.078 0.67,-0.094 0,0" /></g><g
           transform="translate(121.6841,157.6592)"
           id="g76"><path
             id="path78"
             style="fill:#1d1d1b;fill-opacity:1;fill-rule:nonzero;stroke:none"
             d="m 0,0 c -3.157,0.121 -6.179,-0.99 -9.179,-1.822 -1.097,-0.375 -2.263,-0.59 -3.316,-1.076 -1.04,-0.68 -1.094,-2.041 -1.445,-3.12 -0.061,-0.523 -0.408,-1.115 -0.151,-1.625 0.287,-0.08 0.284,-0.212 0.461,-0.431 0.597,-0.297 0.808,0.551 0.964,0.961 0.383,1.103 1.045,2.312 2.284,2.588 2.265,0.699 4.541,1.416 6.85,1.933 2.42,-0.154 4.836,-0.295 7.198,-0.883 2.146,-0.408 4.276,-1.023 6.442,-1.318 0.565,-0.082 0.735,0.647 0.378,0.986 C 8.892,-1.91 6.437,-1.164 4.112,-0.613 2.76,-0.301 1.384,-0.08 0,0" /></g><g
           transform="translate(133.5581,144.1943)"
           id="g80"><path
             id="path82"
             style="fill:#1d1d1b;fill-opacity:1;fill-rule:nonzero;stroke:none"
             d="m 0,0 c -0.64,-0.242 -0.51,-1.104 -0.605,-1.646 -0.096,-1.463 -0.411,-2.916 -1.032,-4.245 -0.137,-0.392 -0.209,-1.144 0.389,-1.134 0.611,0.244 0.719,1.037 0.979,1.57 0.56,1.637 0.773,3.391 0.748,5.111 C 0.448,-0.125 0.236,0.066 0,0" /></g><g
           transform="translate(127.3716,213.7939)"
           id="g84"><path
             id="path86"
             style="fill:#1d1d1b;fill-opacity:1;fill-rule:nonzero;stroke:none"
             d="m 0,0 c -3.246,0.139 -6.669,-2.42 -6.952,-5.65 3.301,-0.776 7.269,-0.746 9.812,-3.393 1.34,-0.879 2.1,-3.029 3.72,-3.375 2.124,2.199 2.5,6.439 0.398,8.791 C 6.356,-2.953 6.311,-2.244 5.032,-1.654 3.417,-0.914 1.848,0.037 0,0" /></g><g
           transform="translate(97.563,196.6553)"
           id="g88"><path
             id="path90"
             style="fill:#1d1d1b;fill-opacity:1;fill-rule:nonzero;stroke:none"
             d="m 0,0 c -1.406,-0.324 -2.758,-0.879 -4.134,-1.326 -1.398,-0.479 -2.785,-1 -4.085,-1.709 -2.302,-1.156 -4.665,-2.201 -6.949,-3.399 -0.396,-0.144 -0.326,-0.806 0.131,-0.775 2.059,0.383 4.051,1.1 6.159,1.203 0.749,0.02 1.451,0.373 2.193,0.371 0.777,-0.238 1.112,-1.08 1.522,-1.707 0.46,-0.795 0.93,-1.615 1.021,-2.549 0.47,-3.021 0.774,-6.078 1.376,-9.084 0.51,-2.543 0.975,-5.099 1.722,-7.586 0.166,-0.365 0.228,-0.953 0.696,-1.037 0.68,0.002 0.908,0.807 0.842,1.369 -0.29,3.122 -0.805,6.221 -1.216,9.331 -0.433,2.793 -0.663,5.638 -1.532,8.341 -0.388,1.284 -1.178,2.409 -1.565,3.678 -0.143,0.318 0.062,0.619 0.357,0.731 1.328,0.46 2.754,0.539 4.127,0.816 0.474,0.252 0.088,0.783 0.011,1.156 C 0.432,-1.598 0.351,-0.979 0.407,-0.354 0.383,-0.145 0.219,0.023 0,0" /></g><g
           transform="translate(91.312,214.4775)"
           id="g92"><path
             id="path94"
             style="fill:#1d1d1b;fill-opacity:1;fill-rule:nonzero;stroke:none"
             d="m 0,0 c 0,-15.363 -7.051,-23.008 -23.082,-23.008 -16.03,0 -23.081,7.645 -23.081,23.008 v 31.098 h 13.804 V -0.818 c 0,-6.827 2.523,-10.315 9.277,-10.315 6.754,0 9.277,3.488 9.277,10.315 V 31.098 H 0 Z" /></g><g
           transform="translate(58.9536,152.3936)"
           id="g96"><path
             id="path98"
             style="fill:#1d1d1b;fill-opacity:1;fill-rule:nonzero;stroke:none"
             d="m 0,0 h 11.059 c 4.378,0 7.42,1.559 7.42,5.937 0,4.676 -3.264,6.235 -7.42,6.235 H 0 Z m 0,21.078 h 10.687 c 2.376,0 5.64,1.262 5.64,5.047 0,3.859 -2.746,5.121 -5.64,5.121 L 0,31.246 Z m -13.805,20.856 h 24.788 c 9.129,0.148 19.149,-2.229 19.149,-13.286 0,-4.752 -2.82,-8.609 -6.976,-10.687 5.641,-1.633 9.128,-6.531 9.128,-12.543 0,-12.617 -9.277,-16.477 -20.633,-16.477 h -25.456 z" /></g><g
           transform="translate(45.1489,147.3623)"
           id="g100"><path
             id="path102"
             style="fill:#1d1d1b;fill-opacity:1;fill-rule:nonzero;stroke:none"
             d="M 0,0 H 42.229 V -11.061 H 13.805 v -9.277 H 39.781 V -31.023 H 13.805 V -41.119 H 42.973 V -52.994 H 0 Z" /></g><g
           transform="translate(58.9536,64.0752)"
           id="g104"><path
             id="path106"
             style="fill:#1d1d1b;fill-opacity:1;fill-rule:nonzero;stroke:none"
             d="m 0,0 c 0.297,-6.236 4.156,-8.238 10.02,-8.238 4.156,0 8.459,1.484 8.459,5.418 0,4.675 -7.57,5.566 -15.214,7.718 -7.57,2.153 -15.511,5.567 -15.511,15.288 0,11.578 11.652,16.105 21.598,16.105 10.538,0 21.151,-5.121 21.225,-17.07 H 16.772 c 0.224,4.824 -4.304,6.383 -8.534,6.383 -2.968,0 -6.679,-1.04 -6.679,-4.528 0,-4.08 7.644,-4.822 15.362,-6.974 7.645,-2.153 15.363,-5.715 15.363,-15.291 0,-13.432 -11.43,-17.737 -23.081,-17.737 -12.172,0 -22.933,5.344 -23.008,18.926 z" /></g></g></g></g></svg>